<?xml version="1.0" standalone="no"?>
<!DOCTYPE svg PUBLIC "-//W3C//DTD SVG 20010904//EN"
 "http://www.w3.org/TR/2001/REC-SVG-20010904/DTD/svg10.dtd">
<svg version="1.0" xmlns="http://www.w3.org/2000/svg"
 width="300.000000pt" height="285.000000pt" viewBox="0 0 300.000000 285.000000"
 preserveAspectRatio="xMidYMid meet">
<metadata>
Created by potrace 1.15, written by Peter Selinger 2001-2017
</metadata>
<g transform="translate(0.000000,285.000000) scale(0.100000,-0.100000)"
fill="#000000" stroke="none">
<path d="M1295 2835 c-283 -76 -509 -296 -615 -599 -64 -186 -74 -250 -75
-486 0 -173 4 -231 19 -300 29 -134 82 -285 146 -418 50 -103 58 -127 50 -148
-15 -38 -12 -120 6 -162 62 -149 270 -180 373 -56 114 139 25 339 -160 361
l-50 6 -49 101 c-92 190 -128 336 -137 561 -7 178 12 320 59 454 37 106 57
146 119 237 82 122 170 188 320 238 151 51 291 43 413 -22 74 -40 173 -144
228 -241 48 -86 113 -271 123 -351 l6 -46 89 -27 c49 -15 95 -27 103 -27 12 0
12 15 1 98 -37 263 -157 516 -311 651 -99 88 -205 148 -310 175 -76 20 -277
20 -348 1z"/>
<path d="M1260 1980 c-209 -40 -246 -315 -55 -417 45 -24 141 -22 191 4 42 22
94 75 94 95 0 17 260 2 367 -21 274 -60 505 -182 689 -365 226 -226 318 -501
241 -725 -41 -119 -158 -247 -277 -304 -41 -19 -102 -40 -134 -46 -127 -23
-290 -7 -432 42 l-72 24 -78 -63 c-43 -35 -82 -64 -86 -64 -5 0 -8 -6 -8 -13
0 -26 225 -100 357 -118 402 -54 784 139 911 459 25 63 26 77 27 242 0 156 -3
183 -23 250 -123 393 -510 730 -984 855 -114 30 -301 55 -412 55 -83 0 -84 0
-110 34 -42 56 -134 90 -206 76z"/>
<path d="M352 1459 c-152 -129 -274 -312 -324 -485 -19 -67 -23 -102 -23 -229
0 -165 14 -233 78 -362 139 -286 543 -431 947 -340 320 72 547 193 761 406
114 115 229 270 273 369 14 31 25 42 41 42 43 0 118 61 148 119 42 85 32 168
-29 240 -127 148 -368 72 -382 -120 -5 -62 15 -136 43 -159 11 -9 9 -20 -17
-63 -134 -228 -338 -412 -607 -546 -222 -111 -438 -145 -646 -102 -210 43
-347 165 -410 363 -71 226 10 469 225 672 l73 68 -24 99 c-13 55 -28 99 -34
99 -5 0 -47 -32 -93 -71z"/>
</g>
</svg>
