<?xml version="1.0" standalone="no"?>
<!DOCTYPE svg PUBLIC "-//W3C//DTD SVG 20010904//EN"
 "http://www.w3.org/TR/2001/REC-SVG-20010904/DTD/svg10.dtd">
<svg version="1.0" xmlns="http://www.w3.org/2000/svg"
 width="427.000000pt" height="320.000000pt" viewBox="0 0 427.000000 320.000000"
 preserveAspectRatio="xMidYMid meet">
<metadata>
Created by potrace 1.15, written by Peter Selinger 2001-2017
</metadata>
<g transform="translate(0.000000,320.000000) scale(0.100000,-0.100000)"
fill="#000000" stroke="none">
<path d="M1625 3178 c-150 -33 -345 -94 -445 -139 -25 -12 -58 -27 -75 -34
-106 -45 -352 -173 -399 -208 -27 -19 -87 -57 -91 -57 -3 0 -13 -7 -23 -15 -9
-9 -51 -41 -92 -72 -100 -75 -258 -230 -329 -324 -52 -69 -93 -143 -148 -264
-14 -32 -18 -66 -18 -165 l0 -125 38 -75 c22 -41 42 -77 46 -80 3 -3 19 -25
36 -49 33 -49 208 -218 243 -234 12 -5 22 -13 22 -17 0 -6 104 -82 158 -115 9
-5 25 -18 36 -27 11 -10 28 -20 38 -24 10 -3 18 -10 18 -15 0 -5 6 -9 14 -9 8
0 16 -3 18 -7 4 -10 75 -63 84 -63 7 0 54 -48 54 -56 0 -3 -15 -12 -32 -20
-18 -8 -51 -25 -73 -38 -22 -13 -60 -34 -85 -47 -25 -12 -47 -26 -50 -29 -3
-4 -24 -19 -48 -34 -153 -96 -292 -231 -342 -333 -84 -173 -53 -382 69 -468
42 -30 45 -30 191 -33 173 -4 172 -4 383 105 15 8 27 19 27 24 0 5 4 9 10 9 5
0 28 20 52 44 118 120 150 172 194 320 33 108 35 316 4 403 -11 32 -20 61 -20
65 0 4 25 22 56 40 31 18 72 43 92 55 47 28 56 28 48 1 -15 -51 -36 -216 -36
-277 0 -67 23 -198 40 -229 5 -9 19 -39 32 -65 12 -27 37 -62 56 -78 30 -26
39 -29 105 -29 79 0 100 11 148 80 24 35 30 46 93 180 l35 75 1 -86 c0 -85 13
-149 31 -149 5 0 9 -6 9 -12 0 -16 46 -38 77 -38 64 0 136 64 198 175 49 88
97 179 122 230 13 28 29 59 35 70 24 42 58 115 58 127 0 7 9 24 20 38 11 14
20 31 20 38 0 8 6 26 14 40 8 15 29 63 48 106 l33 79 8 -34 c20 -86 42 -149
73 -214 19 -39 34 -76 34 -83 0 -16 -120 -172 -132 -172 -4 0 -8 -7 -8 -15 0
-8 -3 -15 -7 -15 -5 0 -30 -28 -57 -63 -27 -34 -55 -66 -61 -72 -23 -21 -46
-86 -40 -114 20 -93 253 -75 413 32 45 30 102 82 102 93 0 3 10 20 23 37 20
29 22 44 22 147 0 92 -4 124 -19 158 -18 39 -18 43 -3 60 10 10 17 22 17 25 0
4 15 29 33 55 32 45 53 82 120 202 56 102 53 101 77 19 23 -82 55 -162 77
-195 13 -20 10 -25 -40 -75 -58 -58 -127 -142 -127 -153 0 -5 -8 -20 -18 -34
-25 -38 -52 -131 -52 -181 0 -36 6 -49 34 -77 29 -29 41 -34 80 -34 25 0 62 7
83 16 142 61 167 77 238 151 80 82 106 191 70 293 -8 23 -15 46 -15 51 0 4 26
18 58 30 51 21 74 23 227 23 180 1 210 -5 343 -66 55 -26 133 -102 163 -159
35 -66 33 -161 -3 -216 -15 -23 -47 -56 -72 -74 -28 -19 -46 -40 -46 -52 0
-17 5 -19 45 -15 60 7 131 60 172 128 31 52 33 60 33 151 0 131 -32 205 -130
299 -117 113 -270 169 -460 170 -98 0 -256 -28 -307 -53 -59 -30 -81 -29 -96
0 -68 127 -69 133 -70 253 -1 96 3 124 21 170 30 75 29 108 -4 120 -48 19
-221 7 -245 -17 -8 -8 -24 -59 -49 -158 -11 -45 -81 -182 -199 -391 l-45 -78
-22 49 c-27 59 -48 174 -41 226 3 21 17 77 32 124 l28 87 -22 21 c-18 19 -33
22 -94 22 -39 0 -93 -6 -118 -13 -45 -14 -46 -14 -68 -85 -24 -77 -47 -141
-62 -170 -6 -10 -41 -90 -79 -177 -38 -87 -73 -167 -78 -177 -10 -21 -27 -58
-72 -158 -46 -102 -82 -176 -103 -210 l-19 -30 6 75 c4 41 12 93 18 115 6 22
16 65 23 95 8 30 25 97 39 149 14 51 26 104 26 116 0 37 -46 67 -97 63 l-43
-3 0 73 c0 78 -8 101 -48 145 -23 25 -32 27 -98 27 -111 0 -193 -45 -319 -175
-49 -51 -104 -95 -140 -115 -82 -44 -157 -85 -240 -132 -38 -21 -77 -43 -85
-47 -10 -6 -25 2 -47 23 -63 63 -101 95 -263 221 -187 146 -256 214 -307 300
-62 104 -76 194 -48 309 14 60 68 174 95 204 9 9 19 25 23 35 3 9 11 17 17 17
5 0 10 4 10 9 0 9 117 131 125 131 2 0 19 14 37 31 18 16 54 44 81 61 26 17
47 35 47 40 0 4 5 8 10 8 6 0 32 15 58 33 26 17 67 43 92 56 25 13 50 28 57
33 28 22 222 119 333 167 72 31 209 74 340 108 97 25 121 27 305 27 186 0 204
-1 255 -23 91 -37 114 -50 148 -82 61 -57 67 -74 66 -179 -1 -91 -2 -98 -43
-180 -82 -164 -227 -308 -416 -413 -49 -27 -70 -37 -130 -62 -16 -7 -46 -20
-66 -28 -80 -34 -309 -77 -408 -77 -48 0 -153 17 -186 31 -67 27 -98 45 -137
80 -47 43 -71 46 -76 11 -10 -66 69 -165 168 -213 110 -53 148 -61 301 -67
123 -4 165 -1 260 17 131 25 203 44 274 71 28 11 54 20 59 20 16 0 176 83 176
92 0 4 5 8 10 8 20 0 124 83 193 153 207 210 301 450 267 676 -8 47 -25 109
-39 136 -27 55 -129 161 -176 185 -17 8 -42 22 -57 32 -14 10 -31 18 -38 18
-7 0 -26 6 -43 14 -18 7 -71 23 -118 35 -122 30 -457 30 -594 -1z m177 -1828
c-3 -53 -71 -273 -117 -376 -14 -31 -25 -62 -25 -69 0 -7 -8 -30 -19 -52 -10
-21 -30 -63 -44 -93 -33 -72 -64 -105 -83 -89 -53 44 -41 279 23 429 22 53 57
124 64 130 3 3 16 22 29 44 12 21 32 48 44 60 27 29 108 77 121 72 6 -2 9 -27
7 -56z m1376 -359 c-3 -61 -7 -73 -39 -112 -20 -24 -55 -54 -78 -66 l-41 -22
6 27 c15 73 118 242 147 242 5 0 8 -29 5 -69z m-2234 -122 c17 -88 0 -244 -35
-311 -91 -177 -244 -298 -384 -305 -50 -3 -64 0 -85 18 -22 18 -25 29 -25 83
0 102 62 213 171 306 89 76 94 80 104 80 6 0 13 7 16 15 4 8 10 15 15 15 4 0
44 24 87 53 96 63 115 76 123 76 4 1 9 -13 13 -30z"/>
</g>
</svg>
