<?xml version="1.0" standalone="no"?>
<!DOCTYPE svg PUBLIC "-//W3C//DTD SVG 20010904//EN"
 "http://www.w3.org/TR/2001/REC-SVG-20010904/DTD/svg10.dtd">
<svg version="1.0" xmlns="http://www.w3.org/2000/svg"
 width="248.000000pt" height="276.000000pt" viewBox="0 0 248.000000 276.000000"
 preserveAspectRatio="xMidYMid meet">
<metadata>
Created by potrace 1.15, written by Peter Selinger 2001-2017
</metadata>
<g transform="translate(0.000000,276.000000) scale(0.100000,-0.100000)"
fill="#000000" stroke="none">
<path d="M620 2439 c-311 -176 -568 -323 -572 -327 -8 -8 398 -245 411 -240 5
2 174 93 375 203 l365 200 1 243 c0 133 -3 242 -7 242 -5 0 -262 -145 -573
-321z"/>
<path d="M1282 2519 l3 -244 340 -187 c187 -103 354 -195 371 -204 l32 -17
205 119 c113 65 203 122 199 126 -9 9 -1116 636 -1137 644 -14 6 -15 -19 -13
-237z"/>
<path d="M896 2012 c-187 -103 -339 -191 -338 -197 2 -13 662 -394 682 -395
18 0 683 383 687 396 2 7 -673 384 -688 384 -2 0 -157 -85 -343 -188z"/>
<path d="M0 1365 c0 -367 3 -664 7 -662 5 2 97 55 206 117 l197 113 0 431 0
431 -157 90 c-86 50 -179 102 -205 118 l-48 27 0 -665z"/>
<path d="M2273 1911 l-203 -116 0 -431 0 -430 203 -117 202 -117 3 336 c1 184
1 483 0 663 l-3 328 -202 -116z"/>
<path d="M502 1360 l3 -382 344 -189 c189 -104 345 -189 347 -189 2 0 4 166 4
369 l0 369 -307 178 c-170 97 -327 188 -351 201 l-42 25 2 -382z"/>
<path d="M1628 1539 l-348 -201 0 -369 c0 -203 2 -369 4 -369 7 0 680 371 689
379 4 4 6 177 5 384 l-3 376 -347 -200z"/>
<path d="M277 759 c-115 -67 -205 -125 -200 -129 4 -4 238 -137 518 -295 281
-158 529 -299 553 -312 l42 -25 0 254 0 253 -337 185 c-185 102 -344 186 -352
188 -9 1 -110 -53 -224 -119z"/>
<path d="M1625 690 l-340 -189 -3 -250 c-1 -138 1 -251 5 -251 18 0 1123 634
1116 641 -19 18 -412 239 -425 238 -7 0 -166 -86 -353 -189z"/>
</g>
</svg>
